<mxfile host="Electron" modified="2024-01-31T22:17:31.228Z" agent="Mozilla/5.0 (X11; Linux x86_64) AppleWebKit/537.36 (KHTML, like Gecko) draw.io/23.0.2 Chrome/120.0.6099.109 Electron/28.1.0 Safari/537.36" etag="Qn_OHPhQBv4wsV58c21b" version="23.0.2" type="device" pages="2">
  <diagram name="High Level" id="WSo3Qs4wSn-2vHyriP7j">
    <mxGraphModel dx="1114" dy="1027" grid="1" gridSize="10" guides="1" tooltips="1" connect="1" arrows="1" fold="1" page="1" pageScale="1" pageWidth="850" pageHeight="1100" math="0" shadow="0">
      <root>
        <mxCell id="0" />
        <mxCell id="1" parent="0" />
        <mxCell id="njhqTvddI9yb07uljKNU-8" value="" style="rounded=1;whiteSpace=wrap;html=1;fillColor=#008a00;fontColor=#ffffff;strokeColor=#005700;" vertex="1" parent="1">
          <mxGeometry x="160" y="480" width="640" height="270" as="geometry" />
        </mxCell>
        <mxCell id="njhqTvddI9yb07uljKNU-7" value="" style="rounded=1;whiteSpace=wrap;html=1;fillColor=#0050ef;fontColor=#ffffff;strokeColor=#001DBC;" vertex="1" parent="1">
          <mxGeometry x="160" y="150" width="640" height="270" as="geometry" />
        </mxCell>
        <mxCell id="_FaUsEVp7-6w71_LDt_C-6" style="edgeStyle=orthogonalEdgeStyle;rounded=0;orthogonalLoop=1;jettySize=auto;html=1;fillColor=#a20025;strokeColor=#6F0000;" parent="1" source="_FaUsEVp7-6w71_LDt_C-1" target="_FaUsEVp7-6w71_LDt_C-2" edge="1">
          <mxGeometry relative="1" as="geometry" />
        </mxCell>
        <mxCell id="_FaUsEVp7-6w71_LDt_C-16" style="edgeStyle=orthogonalEdgeStyle;rounded=0;orthogonalLoop=1;jettySize=auto;html=1;entryX=0;entryY=0.5;entryDx=0;entryDy=0;" parent="1" source="_FaUsEVp7-6w71_LDt_C-1" target="_FaUsEVp7-6w71_LDt_C-14" edge="1">
          <mxGeometry relative="1" as="geometry" />
        </mxCell>
        <mxCell id="_FaUsEVp7-6w71_LDt_C-1" value="Form Designer Service" style="whiteSpace=wrap;html=1;aspect=fixed;" parent="1" vertex="1">
          <mxGeometry x="220" y="230" width="140" height="140" as="geometry" />
        </mxCell>
        <mxCell id="_FaUsEVp7-6w71_LDt_C-11" style="edgeStyle=orthogonalEdgeStyle;rounded=0;orthogonalLoop=1;jettySize=auto;html=1;entryX=0;entryY=0.5;entryDx=0;entryDy=0;" parent="1" source="_FaUsEVp7-6w71_LDt_C-2" target="_FaUsEVp7-6w71_LDt_C-10" edge="1">
          <mxGeometry relative="1" as="geometry" />
        </mxCell>
        <mxCell id="_FaUsEVp7-6w71_LDt_C-2" value="Workflow Service" style="whiteSpace=wrap;html=1;aspect=fixed;" parent="1" vertex="1">
          <mxGeometry x="225" y="510" width="130" height="130" as="geometry" />
        </mxCell>
        <mxCell id="_FaUsEVp7-6w71_LDt_C-12" style="edgeStyle=orthogonalEdgeStyle;rounded=0;orthogonalLoop=1;jettySize=auto;html=1;" parent="1" source="_FaUsEVp7-6w71_LDt_C-10" target="_FaUsEVp7-6w71_LDt_C-2" edge="1">
          <mxGeometry relative="1" as="geometry" />
        </mxCell>
        <mxCell id="_FaUsEVp7-6w71_LDt_C-10" value="Form" style="whiteSpace=wrap;html=1;aspect=fixed;" parent="1" vertex="1">
          <mxGeometry x="495" y="510" width="130" height="130" as="geometry" />
        </mxCell>
        <mxCell id="_FaUsEVp7-6w71_LDt_C-15" style="edgeStyle=orthogonalEdgeStyle;rounded=0;orthogonalLoop=1;jettySize=auto;html=1;entryX=1;entryY=0.5;entryDx=0;entryDy=0;" parent="1" source="_FaUsEVp7-6w71_LDt_C-14" target="_FaUsEVp7-6w71_LDt_C-1" edge="1">
          <mxGeometry relative="1" as="geometry" />
        </mxCell>
        <mxCell id="_FaUsEVp7-6w71_LDt_C-14" value="Form Designer" style="whiteSpace=wrap;html=1;aspect=fixed;" parent="1" vertex="1">
          <mxGeometry x="485" y="230" width="140" height="140" as="geometry" />
        </mxCell>
        <mxCell id="_FaUsEVp7-6w71_LDt_C-20" style="edgeStyle=orthogonalEdgeStyle;rounded=0;orthogonalLoop=1;jettySize=auto;html=1;" parent="1" source="_FaUsEVp7-6w71_LDt_C-17" target="_FaUsEVp7-6w71_LDt_C-10" edge="1">
          <mxGeometry relative="1" as="geometry" />
        </mxCell>
        <mxCell id="_FaUsEVp7-6w71_LDt_C-17" value="Claimant" style="shape=umlActor;verticalLabelPosition=bottom;verticalAlign=top;html=1;outlineConnect=0;" parent="1" vertex="1">
          <mxGeometry x="720" y="545" width="30" height="60" as="geometry" />
        </mxCell>
        <mxCell id="_FaUsEVp7-6w71_LDt_C-19" style="edgeStyle=orthogonalEdgeStyle;rounded=0;orthogonalLoop=1;jettySize=auto;html=1;entryX=1;entryY=0.5;entryDx=0;entryDy=0;" parent="1" source="_FaUsEVp7-6w71_LDt_C-18" target="_FaUsEVp7-6w71_LDt_C-14" edge="1">
          <mxGeometry relative="1" as="geometry" />
        </mxCell>
        <mxCell id="_FaUsEVp7-6w71_LDt_C-18" value="Customer" style="shape=umlActor;verticalLabelPosition=bottom;verticalAlign=top;html=1;outlineConnect=0;" parent="1" vertex="1">
          <mxGeometry x="730" y="270" width="30" height="60" as="geometry" />
        </mxCell>
        <mxCell id="njhqTvddI9yb07uljKNU-2" value="&lt;b&gt;Exposes API to build forms.&amp;nbsp;&lt;/b&gt;" style="text;html=1;strokeColor=none;fillColor=none;align=center;verticalAlign=middle;whiteSpace=wrap;rounded=0;" vertex="1" parent="1">
          <mxGeometry x="220" y="310" width="140" height="80" as="geometry" />
        </mxCell>
        <mxCell id="njhqTvddI9yb07uljKNU-3" value="&lt;b&gt;Runs Workflow Engine&lt;/b&gt;" style="text;html=1;strokeColor=none;fillColor=none;align=center;verticalAlign=middle;whiteSpace=wrap;rounded=0;" vertex="1" parent="1">
          <mxGeometry x="225" y="570" width="125" height="90" as="geometry" />
        </mxCell>
        <mxCell id="njhqTvddI9yb07uljKNU-4" value="&lt;b&gt;Renders page data returned by workflow service&lt;/b&gt;" style="text;html=1;strokeColor=none;fillColor=none;align=center;verticalAlign=middle;whiteSpace=wrap;rounded=0;" vertex="1" parent="1">
          <mxGeometry x="500" y="595" width="125" height="40" as="geometry" />
        </mxCell>
        <mxCell id="njhqTvddI9yb07uljKNU-5" value="&lt;b&gt;&lt;font color=&quot;#6f0000&quot;&gt;Deployments&lt;/font&gt;&lt;/b&gt;" style="text;html=1;strokeColor=none;fillColor=none;align=center;verticalAlign=middle;whiteSpace=wrap;rounded=0;" vertex="1" parent="1">
          <mxGeometry x="280" y="430" width="105" height="40" as="geometry" />
        </mxCell>
        <mxCell id="njhqTvddI9yb07uljKNU-9" value="&lt;h3&gt;Designer&lt;/h3&gt;" style="text;html=1;strokeColor=none;fillColor=none;align=center;verticalAlign=middle;whiteSpace=wrap;rounded=0;" vertex="1" parent="1">
          <mxGeometry x="590" y="165" width="180" height="45" as="geometry" />
        </mxCell>
        <mxCell id="njhqTvddI9yb07uljKNU-10" value="&lt;h3&gt;Claims&amp;nbsp;&lt;/h3&gt;" style="text;html=1;strokeColor=none;fillColor=none;align=center;verticalAlign=middle;whiteSpace=wrap;rounded=0;" vertex="1" parent="1">
          <mxGeometry x="670" y="690" width="60" height="30" as="geometry" />
        </mxCell>
      </root>
    </mxGraphModel>
  </diagram>
  <diagram id="SeMUN2sPY7eKIQEGfng7" name="Form Designer">
    <mxGraphModel dx="1114" dy="1027" grid="1" gridSize="10" guides="1" tooltips="1" connect="1" arrows="1" fold="1" page="1" pageScale="1" pageWidth="850" pageHeight="1100" math="0" shadow="0">
      <root>
        <mxCell id="0" />
        <mxCell id="1" parent="0" />
        <mxCell id="PBUljRrEQlNQTNicOc3z-1" value="" style="endArrow=none;html=1;rounded=0;" edge="1" parent="1">
          <mxGeometry width="50" height="50" relative="1" as="geometry">
            <mxPoint x="240" y="720" as="sourcePoint" />
            <mxPoint x="240" y="320" as="targetPoint" />
          </mxGeometry>
        </mxCell>
        <mxCell id="PBUljRrEQlNQTNicOc3z-2" value="" style="endArrow=none;html=1;rounded=0;" edge="1" parent="1">
          <mxGeometry width="50" height="50" relative="1" as="geometry">
            <mxPoint x="440" y="720" as="sourcePoint" />
            <mxPoint x="440" y="320" as="targetPoint" />
          </mxGeometry>
        </mxCell>
        <mxCell id="PBUljRrEQlNQTNicOc3z-3" value="User" style="shape=umlActor;verticalLabelPosition=bottom;verticalAlign=top;html=1;outlineConnect=0;" vertex="1" parent="1">
          <mxGeometry x="220" y="220" width="30" height="60" as="geometry" />
        </mxCell>
        <mxCell id="PBUljRrEQlNQTNicOc3z-4" value="Front End" style="text;html=1;strokeColor=none;fillColor=none;align=center;verticalAlign=middle;whiteSpace=wrap;rounded=0;" vertex="1" parent="1">
          <mxGeometry x="410" y="260" width="60" height="30" as="geometry" />
        </mxCell>
        <mxCell id="PBUljRrEQlNQTNicOc3z-5" value="" style="verticalLabelPosition=bottom;verticalAlign=top;html=1;shape=mxgraph.basic.frame;dx=10;whiteSpace=wrap;" vertex="1" parent="1">
          <mxGeometry x="390" y="245" width="100" height="60" as="geometry" />
        </mxCell>
        <mxCell id="PBUljRrEQlNQTNicOc3z-6" value="" style="endArrow=none;html=1;rounded=0;" edge="1" parent="1">
          <mxGeometry width="50" height="50" relative="1" as="geometry">
            <mxPoint x="640" y="710" as="sourcePoint" />
            <mxPoint x="640" y="320" as="targetPoint" />
          </mxGeometry>
        </mxCell>
        <mxCell id="PBUljRrEQlNQTNicOc3z-7" value="Service" style="rounded=0;whiteSpace=wrap;html=1;" vertex="1" parent="1">
          <mxGeometry x="580" y="245" width="120" height="60" as="geometry" />
        </mxCell>
        <mxCell id="PBUljRrEQlNQTNicOc3z-8" value="" style="endArrow=classic;html=1;rounded=0;" edge="1" parent="1">
          <mxGeometry width="50" height="50" relative="1" as="geometry">
            <mxPoint x="240" y="340" as="sourcePoint" />
            <mxPoint x="440" y="340" as="targetPoint" />
          </mxGeometry>
        </mxCell>
        <mxCell id="PBUljRrEQlNQTNicOc3z-9" value="Create Form" style="text;html=1;align=center;verticalAlign=middle;resizable=0;points=[];autosize=1;strokeColor=none;fillColor=none;" vertex="1" parent="1">
          <mxGeometry x="290" y="310" width="90" height="30" as="geometry" />
        </mxCell>
        <mxCell id="PBUljRrEQlNQTNicOc3z-10" value="" style="endArrow=classic;html=1;rounded=0;" edge="1" parent="1">
          <mxGeometry width="50" height="50" relative="1" as="geometry">
            <mxPoint x="440" y="360" as="sourcePoint" />
            <mxPoint x="640" y="360" as="targetPoint" />
          </mxGeometry>
        </mxCell>
        <mxCell id="PBUljRrEQlNQTNicOc3z-11" value="POST /forms" style="text;html=1;align=center;verticalAlign=middle;resizable=0;points=[];autosize=1;strokeColor=none;fillColor=none;" vertex="1" parent="1">
          <mxGeometry x="495" y="328" width="90" height="30" as="geometry" />
        </mxCell>
        <mxCell id="PBUljRrEQlNQTNicOc3z-12" value="" style="endArrow=classic;html=1;rounded=0;" edge="1" parent="1">
          <mxGeometry width="50" height="50" relative="1" as="geometry">
            <mxPoint x="640" y="440" as="sourcePoint" />
            <mxPoint x="440" y="440" as="targetPoint" />
          </mxGeometry>
        </mxCell>
        <mxCell id="PBUljRrEQlNQTNicOc3z-13" value="{&lt;br&gt;&lt;div style=&quot;&quot;&gt;&amp;nbsp;&quot;name&quot;: &quot;foo&quot;,&lt;/div&gt;&lt;div style=&quot;&quot;&gt;tasks: [],&lt;/div&gt;&lt;div style=&quot;&quot;&gt;sequences: [],&lt;/div&gt;&lt;div style=&quot;&quot;&gt;&lt;span style=&quot;background-color: initial;&quot;&gt;}&lt;/span&gt;&lt;/div&gt;" style="text;html=1;align=left;verticalAlign=middle;resizable=0;points=[];autosize=1;strokeColor=none;fillColor=none;" vertex="1" parent="1">
          <mxGeometry x="500" y="358" width="100" height="90" as="geometry" />
        </mxCell>
        <mxCell id="PBUljRrEQlNQTNicOc3z-14" value="" style="endArrow=classic;html=1;rounded=0;" edge="1" parent="1">
          <mxGeometry width="50" height="50" relative="1" as="geometry">
            <mxPoint x="440" y="460" as="sourcePoint" />
            <mxPoint x="240" y="460" as="targetPoint" />
          </mxGeometry>
        </mxCell>
        <mxCell id="PBUljRrEQlNQTNicOc3z-15" value="Empty Graph" style="text;html=1;align=center;verticalAlign=middle;resizable=0;points=[];autosize=1;strokeColor=none;fillColor=none;" vertex="1" parent="1">
          <mxGeometry x="290" y="430" width="90" height="30" as="geometry" />
        </mxCell>
        <mxCell id="PBUljRrEQlNQTNicOc3z-16" value="" style="endArrow=classic;html=1;rounded=0;" edge="1" parent="1">
          <mxGeometry width="50" height="50" relative="1" as="geometry">
            <mxPoint x="240" y="510" as="sourcePoint" />
            <mxPoint x="440" y="510" as="targetPoint" />
          </mxGeometry>
        </mxCell>
        <mxCell id="PBUljRrEQlNQTNicOc3z-17" value="Drop Node on Graph" style="text;html=1;align=center;verticalAlign=middle;resizable=0;points=[];autosize=1;strokeColor=none;fillColor=none;" vertex="1" parent="1">
          <mxGeometry x="270" y="470" width="130" height="30" as="geometry" />
        </mxCell>
        <mxCell id="PBUljRrEQlNQTNicOc3z-18" value="" style="endArrow=classic;html=1;rounded=0;" edge="1" parent="1">
          <mxGeometry width="50" height="50" relative="1" as="geometry">
            <mxPoint x="440" y="540" as="sourcePoint" />
            <mxPoint x="640" y="540" as="targetPoint" />
          </mxGeometry>
        </mxCell>
        <mxCell id="PBUljRrEQlNQTNicOc3z-19" value="POST /forms/&amp;lt;formId&amp;gt;/tasks" style="text;html=1;align=center;verticalAlign=middle;resizable=0;points=[];autosize=1;strokeColor=none;fillColor=none;" vertex="1" parent="1">
          <mxGeometry x="450" y="508" width="180" height="30" as="geometry" />
        </mxCell>
        <mxCell id="PBUljRrEQlNQTNicOc3z-20" value="" style="endArrow=classic;html=1;rounded=0;" edge="1" parent="1">
          <mxGeometry width="50" height="50" relative="1" as="geometry">
            <mxPoint x="640" y="650" as="sourcePoint" />
            <mxPoint x="440" y="650" as="targetPoint" />
          </mxGeometry>
        </mxCell>
        <mxCell id="PBUljRrEQlNQTNicOc3z-22" value="{&lt;br&gt;&lt;div style=&quot;&quot;&gt;&amp;nbsp;&quot;name&quot;: &quot;foo&quot;,&lt;/div&gt;&lt;div style=&quot;&quot;&gt;tasks: [{//task data}],&lt;/div&gt;&lt;div style=&quot;&quot;&gt;sequences: [],&lt;/div&gt;&lt;div style=&quot;&quot;&gt;&lt;span style=&quot;background-color: initial;&quot;&gt;}&lt;/span&gt;&lt;/div&gt;" style="text;html=1;align=left;verticalAlign=middle;resizable=0;points=[];autosize=1;strokeColor=none;fillColor=none;" vertex="1" parent="1">
          <mxGeometry x="495" y="560" width="130" height="90" as="geometry" />
        </mxCell>
        <mxCell id="PBUljRrEQlNQTNicOc3z-23" value="" style="endArrow=classic;html=1;rounded=0;" edge="1" parent="1">
          <mxGeometry width="50" height="50" relative="1" as="geometry">
            <mxPoint x="440" y="680" as="sourcePoint" />
            <mxPoint x="240" y="680" as="targetPoint" />
          </mxGeometry>
        </mxCell>
        <mxCell id="PBUljRrEQlNQTNicOc3z-24" value="Graph with one node" style="text;html=1;strokeColor=none;fillColor=none;align=center;verticalAlign=middle;whiteSpace=wrap;rounded=0;" vertex="1" parent="1">
          <mxGeometry x="275" y="650" width="120" height="30" as="geometry" />
        </mxCell>
      </root>
    </mxGraphModel>
  </diagram>
</mxfile>
